<?xml version="1.0" encoding="UTF-8"?>
<svg xmlns="http://www.w3.org/2000/svg" version="1.1" xmlns:xlink="http://www.w3.org/1999/xlink" viewBox="0 0 566.9 120.2">
  <!-- Generator: Adobe Illustrator 29.5.1, SVG Export Plug-In . SVG Version: 2.1.0 Build 141)  -->
  <defs>
    <style>
      .st0 {
        fill: #fff;
      }
    </style>
  </defs>
  <g id="Fondo_xA0_Imagen">
    <image id="Fondo_xA0_Imagen1" data-name="Fondo_xA0_Imagen" width="2362" height="501" transform="scale(.2)" xlink:href="grandezza-fest-1.png"/>
  </g>
  <g id="Objeto_inteligente_vectorial_copia_xA0_Imagen">
    <path class="st0" d="M558.3,71.9c-1.3,3.2-3.7,4.3-7.1,5-7.8,1.7-15.6.8-23.3,1.1-7.8.3-15.6.3-23.5.4-1.6,0-3.2.1-4.9,0-1,0-2.2-.1-3.1-.6-1.3-.7-2.5-.8-3.9-.8-9,0-18.1,0-27.1,0-10.7,0-20.2,3.3-28.5,9.9-7.4,5.8-15.5,9.8-24.8,11.6-.7.1-1.5.2-2.2.2-63.9,0-127.7,0-191.6,0-3.7,0-7-1.2-9.9-3.3-3-2.3-4.6-5.2-4.6-9.1,0-17.8.1-35.5,0-53.3,0-5.9,2.7-9.6,7.7-11.9,2.3-1.1,4.7-1.6,7.2-1.6,62.3,0,124.7,0,187,0,5.8,0,11.2,1.2,16.5,3.3,5.1,2,9.7,4.7,14,8.1,7.4,6,15.8,9.4,25.2,10.3.4,0,.8,0,1.2,0,10.5,0,20.9,0,31.4,0,.4,0,.9,0,1.2-.2,1.6-1.1,3.3-1.2,5.2-1.2,15.2.2,30.4.4,45.6.6,1.4,0,2.8.5,4.2.8.3,0,.5.2.8.2,3.6-.2,5.9,1.6,7.3,4.8v25.8ZM552,47.6c-1,0-2,0-3,0-.4,0-.9,0-1-.2-.8-1.1-2-.9-3.1-.9-1.5,0-3.1,0-4.6,0-13.3-.2-26.7-.4-40-.5-.5,0-1.3.1-1.6.5-.6.9-1.3.9-2.1.9-11.2,0-22.3,0-33.5,0-1,0-1.9,0-2.9-.1-10.4-1.2-19.8-5-27.9-11.6-3.4-2.7-7.1-5-11.1-6.7-3.8-1.6-7.7-3.1-11.9-3.1-63.7,0-127.3,0-191,0-2.4,0-4.5.9-6.4,2.4-1.2.9-1.8,2.2-1.7,3.7,0,18.2,0,36.4,0,54.5,0,1.5.5,2.7,1.7,3.6,1.8,1.5,3.9,2.4,6.3,2.4,63.8,0,127.6,0,191.4,0,.6,0,1.3,0,1.9-.2,7.9-1.5,14.9-4.9,21.1-9.9,8.5-6.8,18.2-11,29.1-11.4,11.8-.5,23.6-.1,35.4,0,.4,0,.8.4,1.3.6.6.3,1.2.8,1.7.8,15.3-.2,30.6-.4,45.8-.6.4,0,.9-.2,1.3-.3.7-.2,1.5-.6,2.2-.7.8-.1,1.5,0,2.4,0v-22.9ZM11.5,68.3c1.4,2.4,3.7,3,6.3,3,6.9,0,13.9,0,20.8,0,1.2,0,2.4-.2,3.5-.6,1.9-.7,3-2.1,2.9-4.4,0-2.7,0-5.4,0-8.2,0-.4,0-.9,0-1.4h-18v5.5h9.7v3.4h-17v-12.8h25.3v-5.5c-.6,0-1.1,0-1.6,0-5.4,0-10.8,0-16.2,0-3.2,0-6.5,0-9.7,0-2.5,0-4.7.7-5.9,3.1v17.7ZM530.5,101c1.3-.3,1.7-1.2,1.7-2.5,0-.5,0-.9,0-1.4,0-2.6-.5-3.1-3.1-3.1-2.2,0-4.4,0-6.6,0v-2.4h7.1c.1.4.2.8.3,1.3.8-.2,1.5-.4,2.1-.6-.1-2.1-.6-2.7-2.4-2.7-2.4,0-4.8,0-7.2,0-.7,0-1.9.4-1.9.8-.2,1.6-.5,3.3-.1,4.8.3,1.2,1.8,1,2.9,1,2.2,0,4.3,0,6.5,0v2.4h-7.7c0-.4-.1-.8-.2-1.3-.8.2-1.5.3-2.2.5,0,1.4.1,2.6,1.6,3.1h9.2ZM508.8,101v-2.3h-8.8v-2.8h4.9v-2h-5v-2.5h8.8v-1.8h-11.6v11.3h11.7ZM478.5,101v-4.5h4.6v-1.9h-4.6v-3h8.6v-1.8h-11.4v11.3h2.8ZM549.7,101v-9.5h5.2v-1.8h-12.9v1.9h5.2v9.4h2.5ZM183.6,60.8c-4.8-4.2-9.5-8.4-14.3-12.6-.3-.3-.7-.7-1.1-.8-2.8,0-5.7,0-8.6,0v23.8h8.1v-14.3c.6.5.9.7,1.3,1,4.8,4.2,9.6,8.4,14.5,12.5.4.3.8.8,1.2.8,2.8,0,5.5,0,8.3,0v-23.8h-8v14.4c-.6-.5-1-.8-1.4-1.2ZM68.5,63c1,0,2,0,2.9,0,1.5-.2,2.7.3,3.9,1.3,2.8,2.2,5.7,4.3,8.6,6.4.4.3.8.6,1.2.7,3.5,0,7.1,0,11.1,0-3.8-2.9-7.2-5.5-10.7-8.1,1.5-.4,2.9-.6,4.2-1,2.2-.8,3-2.1,3-4.4,0-1.8,0-3.7,0-5.5,0-3.2-1.6-4.8-4.9-4.8-8.7,0-17.3,0-26,0-.5,0-1,0-1.5,0v5.5c.6,0,1.1,0,1.6,0,6.6,0,13.2,0,19.9,0,3.2,0,2.6-.2,2.8,2.7,0,1.5-.5,1.8-1.8,1.7-6.9,0-13.9,0-20.8,0-.5,0-1.1,0-1.5,0v13.9h8.1v-8.3ZM145,70.6c-4.7-7.4-9.5-14.9-14.3-22.3-.3-.5-1.1-.8-1.6-.9-1.9-.1-3.8,0-5.7,0-1,0-1.6.4-2.1,1.2-4.5,7.2-9.1,14.3-13.7,21.5-.2.4-.4.7-.7,1.3,2.2,0,4.1-.1,5.9,0,2,.2,3.4-.3,4.2-2.2.4-.9,1.1-1.1,2-1.1,4.4,0,8.9.1,13.3,0,1.7,0,2.8.4,3.5,1.9.3.5.9,1.3,1.4,1.3,2.6.1,5.2,0,8.1,0-.2-.4-.3-.6-.4-.7ZM121.1,62.5c1.7-2.6,3.2-5.1,5-7.7,1.8,2.7,3.4,5.1,5.1,7.7h-10.1ZM222.5,52.9c7.3,0,14.6,0,21.9,0,1.2,0,1.6.4,1.6,1.6,0,3.3,0,6.5,0,9.8,0,1.2-.3,1.5-1.5,1.5-4.9,0-9.7,0-14.6,0-.4,0-.7,0-1.2-.1v-8.1h-8v13.7c.2,0,.3.1.4.1,9.4,0,18.9,0,28.3,0,3.1,0,4.7-1.8,4.7-5,0-4.7,0-9.4,0-14.1,0-3.2-1.6-4.8-4.9-4.8-9,0-18,0-27.1,0-.5,0-1,0-1.5,0v5.5c.7,0,1.3,0,1.8,0ZM269.5,47.5v23.7h29.7v-5.5h-21.5v-3.5h11.2v-5.6h-11.2v-3.7h21.6v-5.4h-29.7ZM370.9,65.8c.8-.5,1.2-.8,1.6-1.1,5.4-3.5,10.7-6.9,16-10.4.4-.3,1-.7,1-1.1.1-1.9,0-3.7,0-5.6h-29.8v5.5h18.6c-.7.5-1,.7-1.4,1-5.4,3.5-10.8,7-16.1,10.5-.4.3-1,.7-1.1,1.1-.1,1.9,0,3.7,0,5.6h29.8v-5.5h-18.7ZM314.7,47.5v5.5h18.6c-.8.5-1.2.8-1.6,1.1-5.4,3.5-10.8,7-16.2,10.5-.4.3-.9.7-.9,1.1,0,1.8,0,3.7,0,5.6h29.7v-5.5h-18.5c.7-.5,1.1-.7,1.4-1,5.4-3.5,10.8-7,16.2-10.5.4-.3,1-.8,1-1.2.1-1.8,0-3.7,0-5.6h-29.7ZM441.9,70.6c-4.8-7.5-9.5-14.9-14.3-22.4-.3-.4-.9-.7-1.4-.7-1.9,0-3.9,0-5.8,0-.9,0-1.5.3-2,1.1-4.6,7.2-9.2,14.5-13.8,21.7-.2.3-.4.7-.6,1.2,2.1,0,4-.1,5.9,0,2,.2,3.4-.3,4.2-2.2.4-.9,1.1-1.1,2-1.1,4.4,0,8.8.1,13.2,0,1.8,0,3,.4,3.8,2,.3.5.9,1.2,1.3,1.2,2.6.1,5.2,0,8,0-.2-.4-.2-.6-.4-.8ZM418,62.5c1.7-2.6,3.3-5.1,5-7.8,1.7,2.6,3.4,5.1,5.2,7.8h-10.2Z"/>
  </g>
</svg>